<?xml version="1.0" standalone="no"?>
<!DOCTYPE svg PUBLIC "-//W3C//DTD SVG 20010904//EN"
 "http://www.w3.org/TR/2001/REC-SVG-20010904/DTD/svg10.dtd">
<svg version="1.0" xmlns="http://www.w3.org/2000/svg"
 width="700.000000pt" height="700.000000pt" viewBox="0 0 700.000000 700.000000"
 preserveAspectRatio="xMidYMid meet">
<metadata>
Created by potrace 1.14, written by Peter Selinger 2001-2017
</metadata>
<g transform="translate(0.000000,700.000000) scale(0.100000,-0.100000)"
fill="#000000" stroke="none">
<path d="M0 3500 l0 -3500 3500 0 3500 0 0 3500 0 3500 -3500 0 -3500 0 0
-3500z m4015 1515 c271 -48 481 -153 666 -335 49 -47 89 -91 89 -98 0 -8 -218
-203 -392 -350 -16 -13 -23 -9 -78 41 -113 105 -274 182 -432 207 -99 16 -320
8 -408 -15 -79 -21 -211 -81 -277 -126 -252 -173 -403 -483 -403 -830 0 -481
289 -860 725 -950 102 -21 282 -25 385 -8 158 25 314 100 432 209 l67 61 210
-178 c115 -98 210 -183 210 -189 1 -19 -150 -158 -230 -211 -279 -188 -649
-278 -1013 -245 -378 34 -693 180 -956 442 -209 209 -346 466 -411 770 -30
142 -33 445 -5 590 71 365 260 689 529 905 233 187 487 288 827 329 73 9 379
-4 465 -19z"/>
</g>
</svg>
